<svg width="62" height="62" viewBox="0 0 62 62" fill="none" xmlns="http://www.w3.org/2000/svg">
<path d="M50.5101 5.01086e-05C49.0017 -0.00442003 47.5074 0.290235 46.1136 0.866969C44.7199 1.4437 43.4543 2.29107 42.3901 3.36005L21.5701 24.19C19.7985 25.9502 18.3939 28.0446 17.4378 30.3517C16.4816 32.6588 15.9929 35.1327 16.0001 37.6301V46H24.3701C26.8658 46.0059 29.3378 45.5165 31.6431 44.5604C33.9483 43.6043 36.0411 42.2005 37.8001 40.43L58.6401 19.6101C60.2457 18.0026 61.3387 15.9552 61.781 13.7266C62.2232 11.4981 61.9949 9.18844 61.1247 7.08966C60.2546 4.99087 58.7818 3.19717 56.8925 1.93526C55.0031 0.67336 52.7821 -8.61042e-05 50.5101 5.01086e-05V5.01086e-05ZM54.3901 15.3601L33.5701 36.19C32.3649 37.4021 30.9311 38.363 29.3519 39.017C27.7727 39.671 26.0794 40.0051 24.3701 40H22.0001V37.6301C21.9963 35.9225 22.3311 34.231 22.9851 32.6536C23.639 31.0762 24.5992 29.6441 25.8101 28.44L46.6401 7.61005C47.6799 6.63514 49.0582 6.10289 50.4834 6.12586C51.9087 6.14883 53.2691 6.72522 54.277 7.73313C55.2849 8.74105 55.8613 10.1015 55.8843 11.5267C55.9072 12.9519 55.375 14.3302 54.4001 15.37L54.3901 15.3601Z" fill="black"/>
<path d="M11 62H47C49.9174 62 52.7153 60.8411 54.7782 58.7782C56.8411 56.7153 58 53.9174 58 51V35H52V51C52 52.3261 51.4732 53.5979 50.5355 54.5355C49.5979 55.4732 48.3261 56 47 56H11C9.67392 56 8.40215 55.4732 7.46447 54.5355C6.52678 53.5979 6 52.3261 6 51V15C6 13.6739 6.52678 12.4021 7.46447 11.4645C8.40215 10.5268 9.67392 10 11 10H27V4H11C8.08262 4 5.28472 5.15892 3.22182 7.22182C1.15892 9.28472 0 12.0826 0 15V51C0 53.9174 1.15892 56.7153 3.22182 58.7782C5.28472 60.8411 8.08262 62 11 62V62Z" fill="black"/>
</svg>
