<svg width="96" height="96" viewBox="0 0 96 96" fill="none" xmlns="http://www.w3.org/2000/svg">
<path d="M66.9 36.9999C69.1 34.7999 69.3 31.2999 67.2 28.9999C65 26.6999 61.4 26.5999 59.2 28.8999L51.2 36.8999C49.4 38.6999 46.6 38.6999 44.8 36.8999L36.8 28.8999C34.6 26.6999 30.9 26.6999 28.8 28.9999C26.7 31.1999 26.9 34.7999 29.1 36.9999L36.9 44.7999C38.7 46.5999 38.7 49.3999 36.9 51.1999L29.1 58.9999C26.9 61.1999 26.7 64.9999 29 67.1999C30.1 68.1999 31.5 68.6999 32.9 68.6999C34.3 68.6999 35.8 68.1999 36.9 67.0999L44.9 59.0999C46.7 57.2999 49.5 57.2999 51.3 59.0999L59.3 67.0999C60.4 68.1999 61.8 68.6999 63.3 68.6999C64.7 68.6999 66.1 68.1999 67.2 67.1999C69.5 64.9999 69.4 61.1999 67.1 58.9999L59.3 51.1999C57.5 49.3999 57.5 46.5999 59.3 44.7999L66.9 36.9999Z" fill="black"/>
<path d="M73 0.5H23C10.6 0.5 0.5 10.6 0.5 23V73C0.5 85.4 10.6 95.5 23 95.5H73C85.4 95.5 95.5 85.4 95.5 73V23C95.5 10.6 85.4 0.5 73 0.5ZM84.3 73C84.3 79.3 79.2 84.3 73 84.3H23C16.7 84.3 11.7 79.2 11.7 73V23C11.7 16.7 16.8 11.7 23 11.7H73C79.3 11.7 84.3 16.8 84.3 23V73Z" fill="black"/>
</svg>
